<!-- Option 1: Bold geometric R with signal waves -->
<svg xmlns="http://www.w3.org/2000/svg" viewBox="0 0 128 128">
  <!-- R shape -->
  <path d="M 20 20 L 20 108 L 35 108 L 35 72 L 60 72 Q 85 72 85 50 Q 85 28 60 28 L 35 28 L 35 20 Z M 35 40 L 60 40 Q 70 40 70 50 Q 70 60 60 60 L 35 60 Z" fill="#6a9fff"/>
  <!-- Diagonal leg -->
  <path d="M 62 72 L 88 108 L 106 108 L 72 64" fill="#6a9fff"/>
  <!-- Signal waves -->
  <path d="M 95 30 Q 100 35 95 40 M 100 25 Q 108 35 100 45 M 105 20 Q 116 35 105 50" stroke="#6a9fff" stroke-width="3" fill="none" stroke-linecap="round"/>
</svg>
