<!-- Option 4: Clean monospace-style R -->
<svg xmlns="http://www.w3.org/2000/svg" viewBox="0 0 128 128">
  <!-- Clean, geometric R -->
  <rect x="24" y="24" width="12" height="80" fill="#6a9fff"/>
  <rect x="24" y="24" width="48" height="12" fill="#6a9fff"/>
  <path d="M 72 24 Q 88 24 88 44 Q 88 58 76 62 L 76 64 Q 88 68 88 82 Q 88 92 78 92 L 66 92 L 66 80 L 76 80 Q 78 80 78 78 Q 78 76 76 76 L 36 76 L 36 64 L 72 64 Q 76 64 76 48 Q 76 36 72 36 L 36 36 L 36 24 Z" fill="#6a9fff"/>
  <rect x="60" y="76" width="12" height="12" fill="#6a9fff" transform="rotate(45 66 82)"/>
  <polygon points="70,76 94,104 106,104 78,72" fill="#6a9fff"/>
</svg>
